<svg xmlns="http://www.w3.org/2000/svg" height="112.42" viewBox="0 0 250 112.41648" width="250"><g transform="matrix(1.25 0 0 -1.25 59.164 86.448)"><path d="m38.626 68.263v-1.4608h3.7863v-60.729h-3.5776v-1.4459h12.82v1.4161h-3.4285v17.274l2.707 3.5776 9.5461-20.833h-2.713v-1.434h11.448v0.00305h12.349l0.0059 1.437h-3.515v28.206c0 4.5335 1.8551 8.8277 6.0699 8.8277 3.4306 0 4.5197-3.4349 4.5197-7.024v-30.025h-3.7087v-1.4221h13.66v1.437h-3.7654v30.836c0 4.5946-3.1245 8.1211-8.7799 8.1211-5.9225 0-7.8795-3.599-7.9959-4.1142v3.187h-9.4299l-0.0031-1.437h3.2407l0.009-36.593h-2.7756v-0.00897h-2.3254l-11.866 25.952s5.2241 7.4019 7.5099 9.1973c1.3662 1.0742 2.5928 1.4489 4.5256 1.4489v1.428h-12.152v-1.431c1.4043 0 1.9443-0.0016 2.3373-0.53962 0.84144-1.1467-0.40093-4.0646-3.5835-8.6458-2.5415-3.6558-5.3157-7.4831-5.3157-7.4831l-0.0031 42.278h-9.5968zm84.923-0.009v-1.44h3.8876v-60.747h-4.1142v-1.437h28.451v1.437h-4.1917v62.187h-9.883v-1.44h3.8906l0.003-60.747h-8.1598v62.187h-9.883zm-170.18-1.807v-1.437h4.5703v-59.054h-4.5703v-1.437h14.921c10.254 0 17.178 5.8374 17.178 17.81 0 4.1862-0.98014 8.0672-3.8727 11.019-3.4612 3.5356-6.5814 4.2948-11.821 4.9072v0.18483c5.976 0.64873 13.681 5.5296 13.681 13.478 0 11.215-7.5575 14.528-17.786 14.528h-12.301zm11.001-1.437c4.5621 0 7.0365-0.55786 9.3166-2.4029 3.2608-2.6827 3.1813-7.7176 3.0916-11.511-0.1431-6.1878-3.3066-10.085-5.9149-11.102-2.1733-0.82809-5.192-0.8288-6.4933-0.8288v25.845zm64.566-19.987c-10.305 0-14.212-12.538-14.212-21.206 0-10.62 5.3827-19.888 14.385-19.888 7.0884 0 9.62 7.5871 9.8413 15.521h-3.6342c-0.06296-3.7684-0.07203-14.036-6.2369-14.036-7.2563 0.00572-7.2565 11.763-7.2565 18.603 0 6.1038-0.12366 19.605 7.1879 19.605 2.8697 0 4.9042-2.3085 4.9042-4.3348 0-2.7247-2.6713-3.1827-2.6713-6.3234 0-2.0015 1.4082-3.5388 3.3659-3.5388 3.0032 0 3.5835 3.3041 3.5835 4.8744 0 3.402-2.0713 10.724-9.257 10.724zm83.313-0.0059c-8.4488 0-13.777-10.017-13.777-21.284 0-8.548 3.2159-19.811 14.355-19.811 8.0023 0 10.197 7.8971 10.634 15.592l-3.7326-0.0059c0-3.7894-0.80209-14.09-6.7437-14.09-7.4165 0-7.3907 11.229-7.3907 18.07 0 1.0838 0.0177 1.8626 0.0596 3.3242h0.25043 17.566c0 2.7743-0.0713 7.0823-1.9259 11.892-1.0437 2.6808-4.1993 6.3114-9.2957 6.3114zm-126.23-0.92122v-1.437h3.1363v-29.154c0.000002-6.5675 4.6774-9.7846 8.4878-9.7846 5.2051 0 6.8431 2.5825 7.3907 3.4106l0.00897-2.5013h9.4597v1.437h-3.4613v38.03h-8.8992v-1.437h2.9008v-28.364c0-4.1061-1.0908-8.6518-5.256-8.6518-2.5415 0-4.6359 1.5894-4.6359 7.5367v30.916h-9.1317zm126.09-0.28324c4.4915 0 5.0086-10.578 5.0086-15.476h-11.469c0.11257 3.3639 0.19271 6.9436 1.7649 11.454 0.6888 1.9767 2.0758 4.0218 4.6956 4.0218zm-145.18-6.541c2.6317-0.04696 5.43-0.44541 7.7097-2.871 1.7401-1.9424 3.7714-4.5302 3.7714-11.937 0-3.8829-0.32925-8.7098-3.0081-12.608-2.6693-3.8867-5.7263-3.8996-11.025-3.8996v31.307c0.81426 0 1.6748 0.02459 2.552 0.009zm146.86-39.681c-0.0477-1.3299-0.20379-3.0159-0.3011-4.7045h0.76022c0.3091 1.2288 0.61511 1.8922 0.92421 2.2509 0.40641 0.45793 1.0714 0.7662 3.2675 0.7662h0.87054v-11.755c0-2.759-0.20595-2.9658-2.4536-3.1184v-0.71551h7.8706v0.71551c-2.3545 0.15264-2.555 0.35943-2.555 3.1184v11.755h1.3326c1.5818 0 2.3991-0.15336 2.8322-0.638 0.38543-0.38542 0.69322-1.0511 0.94508-2.3791l0.76916 0.053665c-0.15455 1.6352-0.25471 3.5766-0.31004 4.6508h-0.40547c-0.41023-0.51517-0.56429-0.66483-1.2283-0.66483h-10.53c-0.71551 0-0.97096 0.050443-1.3297 0.66483h-0.45912zm-26.89-0.2832c-3.6367 0-5.7808-2.1977-5.7808-4.8804 0-2.5053 2.2789-3.8583 4.0725-4.7284l0.86756-0.40844c2.1427-0.996 2.877-2.0183 2.877-3.4494 0-1.5837-1.0852-2.8889-2.8501-2.8889-2.7953 0-4.2629 2.8399-4.8029 4.1679l-0.81688-0.25639c0.27285-1.5589 0.60127-3.2982 0.81688-3.9622 0.32437-0.10303 0.81175-0.30576 1.5711-0.53664 0.70597-0.22896 1.6837-0.43527 2.716-0.43527 3.6672 0 6.1892 2.1471 6.1892 5.1905 0 2.656-1.9526 4.0094-4.0725 4.9042l-0.70657 0.30708c-2.0893 0.89487-3.1751 1.8424-3.1751 3.2735 0 1.4558 0.97799 2.6832 2.7696 2.6832 2.2801 0 3.1219-1.789 3.6104-3.2735l0.87054 0.15801c-0.27476 1.431-0.433 2.5515-0.54558 3.4464-0.32437 0.12975-0.70383 0.17828-1.1389 0.33093-0.7594 0.25568-1.7388 0.35776-2.4715 0.35776zm-107.78-0.24149v-0.71551c2.0969-0.15455 2.6593-0.76751 2.6593-3.7326v-5.0086c0-2.9117-0.12843-4.3429-0.22956-5.11-0.12784-0.92158-0.79362-1.2781-2.072-1.3297v-0.7185h6.2369v0.7185c-1.6352 0.10113-2.3507 0.40808-2.4804 1.3297-0.10113 0.76703-0.22956 2.1983-0.22956 5.11v5.5214h0.05068l10.53-12.882h1.1746v9.6594c0 2.9155 0.12843 4.3478 0.22956 5.1129 0.12784 0.92158 0.79553 1.2762 2.072 1.3297v0.71551h-6.2369v-0.71551c1.6352-0.10303 2.3526-0.40808 2.4804-1.3297 0.10113-0.76512 0.22956-2.1975 0.22956-5.1129v-4.8536h-0.050677l-10.196 12.012h-4.1679zm-23.442-0.14012v-0.71551c2.0454-0.15455 2.2539-0.30684 2.2539-3.0678v-5.903c0-3.0147 0.55929-4.8565 1.914-5.9537 1.2765-1.0494 2.9628-1.3565 4.5465-1.3565 1.7897 0 3.6056 0.69011 4.7313 1.917 1.4043 1.5093 1.8633 3.6302 1.8633 6.1087v1.8126c0 2.9155 0.12951 4.3478 0.23254 5.1129 0.12784 0.92158 0.78957 1.2781 2.066 1.3297v0.71551h-6.2309v-0.71551c1.6352-0.10303 2.3477-0.40808 2.4775-1.3297 0.10113-0.76512 0.22956-2.1975 0.22956-5.1129v-1.5324c0-4.4705-1.5341-6.8242-4.627-6.8242-3.0147 0-4.3408 2.2771-4.3408 6.3412v5.3902c0 2.7609 0.20201 2.9132 2.0929 3.0678v0.71551h-7.2088zm48.291 0v-0.71551c1.992-0.15455 2.2002-0.35752 2.2002-3.1184v-8.9439c0-2.759-0.20822-2.9658-2.2002-3.1184v-0.71551h7.2088v0.71551c-1.9443 0.15264-2.1465 0.35943-2.1465 3.1184v8.9439c0 2.7609 0.20225 2.9639 2.1465 3.1184v0.71551h-7.2088zm13.001 0v-0.71551c1.431-0.15455 1.8399-0.30648 2.71-2.6057 0.96928-2.5568 3.3975-8.8435 5.1338-13.446h1.1031c1.9672 5.2147 5.1345 12.781 5.3902 13.291 1.1754 2.3755 1.2775 2.5546 2.9127 2.7607v0.71551h-5.8016v-0.71551l0.7662-0.077516c1.1257-0.12784 1.353-0.43384 0.81688-2.069-0.45793-1.3795-2.6026-7.1816-3.6253-9.9158-1.5608 3.9859-3.5522 9.0458-4.0635 10.631-0.30529 0.996-0.25568 1.1731 0.71551 1.3028l0.81688 0.1282v0.71551h-6.8749zm22.455 0v-0.71551c1.9424-0.15455 2.1465-0.35752 2.1465-3.1184v-8.9439c0-2.759-0.2038-2.9658-2.4-3.1184v-0.71551h12.468c0.20416 0.71551 0.7656 3.3197 0.87054 4.1917l-0.77 0.152c-0.43694-1.2269-0.87078-2.0953-1.3058-2.5818-0.53616-0.63728-1.7108-0.73936-2.9873-0.73936-1.078 0-1.9957 0.02564-2.4536 0.33093-0.46175 0.33391-0.56347 1.0505-0.56347 2.5311v4.1917h2.1972c2.1981 0 2.2524-0.10208 2.5043-2.1227h0.81688v5.42h-0.81688c-0.25186-1.9672-0.30624-2.1227-2.5043-2.1227h-2.1972v5.42c0 0.91967 0.0514 0.91824 1.0226 0.91824h1.279c1.5818 0 2.4002-0.15121 2.8352-0.58434 0.38161-0.38733 0.6894-1.1053 0.94508-2.3284l0.7662 0.050681c-0.15264 1.5837-0.25365 3.4763-0.30707 3.8846h-11.55zm59.832 0v-0.71551c1.9901-0.15455 2.1943-0.35752 2.1943-3.1184v-8.9439c0-2.759-0.20416-2.9658-2.1943-3.1184v-0.71551h7.2028v0.71551c-1.9386 0.15264-2.1465 0.35943-2.1465 3.1184v8.9439c0 2.7609 0.20798 2.9639 2.1465 3.1184v0.71551h-7.2028zm34.944 0v-0.71551c1.328-0.15455 1.4598-0.23087 2.555-2.1465 1.6886-2.9136 2.6108-4.524 3.4255-6.058 0.38543-0.71551 0.35775-0.84311 0.35775-1.3774v-2.4804c0-2.759-0.20295-2.9658-2.4029-3.1184v-0.71551h7.7693v0.71551c-2.2973 0.15264-2.5043 0.35943-2.5043 3.1184v2.7339c0 0.87006 0.0793 1.0726 0.3369 1.5324 1.3013 2.532 2.2437 4.1155 3.2168 5.6496 1.0742 1.6867 1.3031 1.992 2.8352 2.1465v0.71551h-5.748v-0.71551l1.0196-0.10137c0.89489-0.10303 1.0492-0.35847 0.61416-1.3297-0.76703-1.7382-2.1716-4.4995-2.9634-5.8523-1.0475 1.6886-2.6819 4.7813-3.2943 6.0044-0.41023 0.82046-0.3599 1.0209 0.30409 1.124l1.0733 0.15503v0.71551h-6.5946zm-74.729-0.00298v-0.71551c1.9424-0.15264 2.1465-0.35752 2.1465-3.1184v-8.9439c0-2.7609-0.2044-2.9658-2.2479-3.1184v-0.71551h7.2028v0.71551c-1.9386 0.15264-2.1465 0.35752-2.1465 3.1184v3.4255h0.81986c0.76703 0 1.0696-0.25639 1.4817-0.9719 0.73841-1.328 1.7195-3.0411 2.4655-4.2603 0.77085-1.2517 1.9452-2.4686 4.46-2.3523 1.3223 0.06296 1.7023 0.22658 1.7023 0.22658l-0.11328 0.53962c-1.0799 0.08968-1.8892 0.53401-4.1082 3.8578-0.77848 1.1754-1.8792 3.0618-2.2837 3.7773 2.0683 0.76703 3.5537 2.2728 3.5537 4.4213 0 1.5073-0.69226 2.5826-1.6844 3.2466-1.0208 0.664-2.3506 0.86756-4.2185 0.86756h-7.0299zm6.3919-0.96892c1.6333 0 3.5567-0.92075 3.5567-3.5805-0.000002-1.2269-0.44112-2.4539-1.4638-3.2705-0.6659-0.51326-1.3792-0.66483-2.4-0.66483h-1.1299v6.5947c0 0.81664 0.20821 0.92122 1.437 0.92122z" fill="#e87722"/></g></svg>
